ISO-10303-21;
HEADER;
/* Generated by software containing ST-Developer
 * from STEP Tools, Inc. (www.steptools.com) 
 */

FILE_DESCRIPTION(
/* description */ ('',
'CAx-IF Rec.Pracs.---Representation and Presentation of Product Manufa
cturing Information (PMI)---4.0---2014-10-13'),
/* implementation_level */ '2;1');

FILE_NAME(
/* name */ '',
/* time_stamp */ '2025-03-02T19:10:50+08:00',
/* author */ (''),
/* organization */ (''),
/* preprocessor_version */ 'ST-DEVELOPER v20',
/* originating_system */ 'Autodesk Translation Framework v13.20.0.188',

/* authorisation */ '');

FILE_SCHEMA (('AP242_MANAGED_MODEL_BASED_3D_ENGINEERING_MIM_LF { 1 0 10303 442 1 1 4 }'));
ENDSEC;

DATA;
#10=MECHANICAL_DESIGN_GEOMETRIC_PRESENTATION_REPRESENTATION('',(#13),#655);
#11=SHAPE_REPRESENTATION_RELATIONSHIP('SRR','None',#662,#12);
#12=ADVANCED_BREP_SHAPE_REPRESENTATION('',(#14),#654);
#13=STYLED_ITEM('',(#672),#14);
#14=MANIFOLD_SOLID_BREP('\X2\5B9E4F53\X0\1',#407);
#15=FACE_BOUND('',#43,.T.);
#16=FACE_OUTER_BOUND('',#37,.T.);
#17=FACE_OUTER_BOUND('',#38,.T.);
#18=FACE_OUTER_BOUND('',#39,.T.);
#19=FACE_OUTER_BOUND('',#40,.T.);
#20=FACE_OUTER_BOUND('',#41,.T.);
#21=FACE_OUTER_BOUND('',#42,.T.);
#22=FACE_OUTER_BOUND('',#44,.T.);
#23=FACE_OUTER_BOUND('',#45,.T.);
#24=FACE_OUTER_BOUND('',#46,.T.);
#25=FACE_OUTER_BOUND('',#47,.T.);
#26=FACE_OUTER_BOUND('',#48,.T.);
#27=FACE_OUTER_BOUND('',#49,.T.);
#28=FACE_OUTER_BOUND('',#50,.T.);
#29=FACE_OUTER_BOUND('',#51,.T.);
#30=FACE_OUTER_BOUND('',#52,.T.);
#31=FACE_OUTER_BOUND('',#53,.T.);
#32=FACE_OUTER_BOUND('',#54,.T.);
#33=FACE_OUTER_BOUND('',#55,.T.);
#34=FACE_OUTER_BOUND('',#56,.T.);
#35=FACE_OUTER_BOUND('',#57,.T.);
#36=FACE_OUTER_BOUND('',#58,.T.);
#37=EDGE_LOOP('',(#257,#258,#259,#260));
#38=EDGE_LOOP('',(#261,#262,#263,#264));
#39=EDGE_LOOP('',(#265,#266,#267,#268));
#40=EDGE_LOOP('',(#269,#270,#271,#272));
#41=EDGE_LOOP('',(#273,#274,#275,#276));
#42=EDGE_LOOP('',(#277,#278,#279,#280,#281,#282,#283,#284,#285,#286,#287,
#288));
#43=EDGE_LOOP('',(#289,#290,#291,#292));
#44=EDGE_LOOP('',(#293,#294,#295,#296));
#45=EDGE_LOOP('',(#297,#298,#299,#300));
#46=EDGE_LOOP('',(#301,#302,#303,#304));
#47=EDGE_LOOP('',(#305,#306,#307,#308));
#48=EDGE_LOOP('',(#309,#310,#311,#312));
#49=EDGE_LOOP('',(#313,#314,#315,#316,#317,#318));
#50=EDGE_LOOP('',(#319,#320,#321,#322,#323,#324));
#51=EDGE_LOOP('',(#325,#326,#327,#328));
#52=EDGE_LOOP('',(#329,#330,#331,#332));
#53=EDGE_LOOP('',(#333,#334,#335,#336));
#54=EDGE_LOOP('',(#337,#338,#339,#340));
#55=EDGE_LOOP('',(#341,#342,#343,#344,#345,#346));
#56=EDGE_LOOP('',(#347,#348,#349,#350,#351,#352,#353,#354,#355,#356));
#57=EDGE_LOOP('',(#357,#358,#359,#360));
#58=EDGE_LOOP('',(#361,#362,#363,#364));
#59=LINE('',#544,#113);
#60=LINE('',#546,#114);
#61=LINE('',#548,#115);
#62=LINE('',#549,#116);
#63=LINE('',#553,#117);
#64=LINE('',#555,#118);
#65=LINE('',#557,#119);
#66=LINE('',#558,#120);
#67=LINE('',#562,#121);
#68=LINE('',#564,#122);
#69=LINE('',#566,#123);
#70=LINE('',#567,#124);
#71=LINE('',#569,#125);
#72=LINE('',#570,#126);
#73=LINE('',#572,#127);
#74=LINE('',#575,#128);
#75=LINE('',#577,#129);
#76=LINE('',#579,#130);
#77=LINE('',#581,#131);
#78=LINE('',#583,#132);
#79=LINE('',#585,#133);
#80=LINE('',#587,#134);
#81=LINE('',#589,#135);
#82=LINE('',#590,#136);
#83=LINE('',#593,#137);
#84=LINE('',#595,#138);
#85=LINE('',#597,#139);
#86=LINE('',#598,#140);
#87=LINE('',#600,#141);
#88=LINE('',#601,#142);
#89=LINE('',#603,#143);
#90=LINE('',#605,#144);
#91=LINE('',#610,#145);
#92=LINE('',#612,#146);
#93=LINE('',#614,#147);
#94=LINE('',#615,#148);
#95=LINE('',#619,#149);
#96=LINE('',#620,#150);
#97=LINE('',#621,#151);
#98=LINE('',#622,#152);
#99=LINE('',#625,#153);
#100=LINE('',#626,#154);
#101=LINE('',#627,#155);
#102=LINE('',#630,#156);
#103=LINE('',#631,#157);
#104=LINE('',#633,#158);
#105=LINE('',#638,#159);
#106=LINE('',#639,#160);
#107=LINE('',#640,#161);
#108=LINE('',#643,#162);
#109=LINE('',#644,#163);
#110=LINE('',#647,#164);
#111=LINE('',#648,#165);
#112=LINE('',#650,#166);
#113=VECTOR('',#446,10.);
#114=VECTOR('',#447,10.);
#115=VECTOR('',#448,10.);
#116=VECTOR('',#449,10.);
#117=VECTOR('',#452,10.);
#118=VECTOR('',#453,10.);
#119=VECTOR('',#454,10.);
#120=VECTOR('',#455,10.);
#121=VECTOR('',#458,10.);
#122=VECTOR('',#459,10.);
#123=VECTOR('',#460,10.);
#124=VECTOR('',#461,10.);
#125=VECTOR('',#464,10.);
#126=VECTOR('',#465,10.);
#127=VECTOR('',#468,10.);
#128=VECTOR('',#471,10.);
#129=VECTOR('',#472,10.);
#130=VECTOR('',#473,10.);
#131=VECTOR('',#474,10.);
#132=VECTOR('',#475,10.);
#133=VECTOR('',#476,10.);
#134=VECTOR('',#477,10.);
#135=VECTOR('',#478,10.);
#136=VECTOR('',#479,10.);
#137=VECTOR('',#480,10.);
#138=VECTOR('',#481,10.);
#139=VECTOR('',#482,10.);
#140=VECTOR('',#483,10.);
#141=VECTOR('',#486,10.);
#142=VECTOR('',#487,10.);
#143=VECTOR('',#490,10.);
#144=VECTOR('',#493,10.);
#145=VECTOR('',#498,10.);
#146=VECTOR('',#499,10.);
#147=VECTOR('',#500,10.);
#148=VECTOR('',#501,10.);
#149=VECTOR('',#504,10.);
#150=VECTOR('',#505,10.);
#151=VECTOR('',#506,10.);
#152=VECTOR('',#507,10.);
#153=VECTOR('',#510,10.);
#154=VECTOR('',#511,10.);
#155=VECTOR('',#512,10.);
#156=VECTOR('',#515,10.);
#157=VECTOR('',#516,10.);
#158=VECTOR('',#519,10.);
#159=VECTOR('',#524,10.);
#160=VECTOR('',#525,10.);
#161=VECTOR('',#526,10.);
#162=VECTOR('',#529,10.);
#163=VECTOR('',#530,10.);
#164=VECTOR('',#533,10.);
#165=VECTOR('',#534,10.);
#166=VECTOR('',#537,10.);
#167=VERTEX_POINT('',#542);
#168=VERTEX_POINT('',#543);
#169=VERTEX_POINT('',#545);
#170=VERTEX_POINT('',#547);
#171=VERTEX_POINT('',#551);
#172=VERTEX_POINT('',#552);
#173=VERTEX_POINT('',#554);
#174=VERTEX_POINT('',#556);
#175=VERTEX_POINT('',#560);
#176=VERTEX_POINT('',#561);
#177=VERTEX_POINT('',#563);
#178=VERTEX_POINT('',#565);
#179=VERTEX_POINT('',#574);
#180=VERTEX_POINT('',#576);
#181=VERTEX_POINT('',#578);
#182=VERTEX_POINT('',#580);
#183=VERTEX_POINT('',#582);
#184=VERTEX_POINT('',#584);
#185=VERTEX_POINT('',#586);
#186=VERTEX_POINT('',#588);
#187=VERTEX_POINT('',#591);
#188=VERTEX_POINT('',#592);
#189=VERTEX_POINT('',#594);
#190=VERTEX_POINT('',#596);
#191=VERTEX_POINT('',#608);
#192=VERTEX_POINT('',#609);
#193=VERTEX_POINT('',#611);
#194=VERTEX_POINT('',#613);
#195=VERTEX_POINT('',#617);
#196=VERTEX_POINT('',#618);
#197=VERTEX_POINT('',#624);
#198=VERTEX_POINT('',#629);
#199=VERTEX_POINT('',#636);
#200=VERTEX_POINT('',#637);
#201=VERTEX_POINT('',#642);
#202=VERTEX_POINT('',#646);
#203=EDGE_CURVE('',#167,#168,#59,.T.);
#204=EDGE_CURVE('',#168,#169,#60,.T.);
#205=EDGE_CURVE('',#169,#170,#61,.T.);
#206=EDGE_CURVE('',#170,#167,#62,.T.);
#207=EDGE_CURVE('',#171,#172,#63,.T.);
#208=EDGE_CURVE('',#171,#173,#64,.T.);
#209=EDGE_CURVE('',#174,#173,#65,.T.);
#210=EDGE_CURVE('',#172,#174,#66,.T.);
#211=EDGE_CURVE('',#175,#176,#67,.T.);
#212=EDGE_CURVE('',#175,#177,#68,.T.);
#213=EDGE_CURVE('',#178,#177,#69,.T.);
#214=EDGE_CURVE('',#176,#178,#70,.T.);
#215=EDGE_CURVE('',#176,#171,#71,.T.);
#216=EDGE_CURVE('',#173,#178,#72,.T.);
#217=EDGE_CURVE('',#177,#174,#73,.T.);
#218=EDGE_CURVE('',#172,#179,#74,.T.);
#219=EDGE_CURVE('',#179,#180,#75,.T.);
#220=EDGE_CURVE('',#180,#181,#76,.T.);
#221=EDGE_CURVE('',#181,#182,#77,.T.);
#222=EDGE_CURVE('',#182,#183,#78,.T.);
#223=EDGE_CURVE('',#183,#184,#79,.T.);
#224=EDGE_CURVE('',#184,#185,#80,.T.);
#225=EDGE_CURVE('',#185,#186,#81,.T.);
#226=EDGE_CURVE('',#186,#175,#82,.T.);
#227=EDGE_CURVE('',#187,#188,#83,.T.);
#228=EDGE_CURVE('',#188,#189,#84,.T.);
#229=EDGE_CURVE('',#189,#190,#85,.T.);
#230=EDGE_CURVE('',#190,#187,#86,.T.);
#231=EDGE_CURVE('',#187,#168,#87,.T.);
#232=EDGE_CURVE('',#188,#167,#88,.T.);
#233=EDGE_CURVE('',#189,#170,#89,.T.);
#234=EDGE_CURVE('',#190,#169,#90,.T.);
#235=EDGE_CURVE('',#191,#192,#91,.T.);
#236=EDGE_CURVE('',#192,#193,#92,.T.);
#237=EDGE_CURVE('',#193,#194,#93,.T.);
#238=EDGE_CURVE('',#194,#191,#94,.F.);
#239=EDGE_CURVE('',#195,#196,#95,.T.);
#240=EDGE_CURVE('',#195,#180,#96,.T.);
#241=EDGE_CURVE('',#179,#193,#97,.T.);
#242=EDGE_CURVE('',#196,#192,#98,.T.);
#243=EDGE_CURVE('',#196,#197,#99,.T.);
#244=EDGE_CURVE('',#183,#191,#100,.T.);
#245=EDGE_CURVE('',#197,#182,#101,.T.);
#246=EDGE_CURVE('',#197,#198,#102,.T.);
#247=EDGE_CURVE('',#198,#181,#103,.T.);
#248=EDGE_CURVE('',#198,#195,#104,.T.);
#249=EDGE_CURVE('',#199,#200,#105,.T.);
#250=EDGE_CURVE('',#199,#185,#106,.T.);
#251=EDGE_CURVE('',#200,#184,#107,.T.);
#252=EDGE_CURVE('',#200,#201,#108,.F.);
#253=EDGE_CURVE('',#201,#194,#109,.F.);
#254=EDGE_CURVE('',#201,#202,#110,.T.);
#255=EDGE_CURVE('',#202,#186,#111,.T.);
#256=EDGE_CURVE('',#202,#199,#112,.T.);
#257=ORIENTED_EDGE('',*,*,#203,.T.);
#258=ORIENTED_EDGE('',*,*,#204,.T.);
#259=ORIENTED_EDGE('',*,*,#205,.T.);
#260=ORIENTED_EDGE('',*,*,#206,.T.);
#261=ORIENTED_EDGE('',*,*,#207,.F.);
#262=ORIENTED_EDGE('',*,*,#208,.T.);
#263=ORIENTED_EDGE('',*,*,#209,.F.);
#264=ORIENTED_EDGE('',*,*,#210,.F.);
#265=ORIENTED_EDGE('',*,*,#211,.F.);
#266=ORIENTED_EDGE('',*,*,#212,.T.);
#267=ORIENTED_EDGE('',*,*,#213,.F.);
#268=ORIENTED_EDGE('',*,*,#214,.F.);
#269=ORIENTED_EDGE('',*,*,#215,.F.);
#270=ORIENTED_EDGE('',*,*,#214,.T.);
#271=ORIENTED_EDGE('',*,*,#216,.F.);
#272=ORIENTED_EDGE('',*,*,#208,.F.);
#273=ORIENTED_EDGE('',*,*,#216,.T.);
#274=ORIENTED_EDGE('',*,*,#213,.T.);
#275=ORIENTED_EDGE('',*,*,#217,.T.);
#276=ORIENTED_EDGE('',*,*,#209,.T.);
#277=ORIENTED_EDGE('',*,*,#211,.T.);
#278=ORIENTED_EDGE('',*,*,#215,.T.);
#279=ORIENTED_EDGE('',*,*,#207,.T.);
#280=ORIENTED_EDGE('',*,*,#218,.T.);
#281=ORIENTED_EDGE('',*,*,#219,.T.);
#282=ORIENTED_EDGE('',*,*,#220,.T.);
#283=ORIENTED_EDGE('',*,*,#221,.T.);
#284=ORIENTED_EDGE('',*,*,#222,.T.);
#285=ORIENTED_EDGE('',*,*,#223,.T.);
#286=ORIENTED_EDGE('',*,*,#224,.T.);
#287=ORIENTED_EDGE('',*,*,#225,.T.);
#288=ORIENTED_EDGE('',*,*,#226,.T.);
#289=ORIENTED_EDGE('',*,*,#227,.T.);
#290=ORIENTED_EDGE('',*,*,#228,.T.);
#291=ORIENTED_EDGE('',*,*,#229,.T.);
#292=ORIENTED_EDGE('',*,*,#230,.T.);
#293=ORIENTED_EDGE('',*,*,#227,.F.);
#294=ORIENTED_EDGE('',*,*,#231,.T.);
#295=ORIENTED_EDGE('',*,*,#203,.F.);
#296=ORIENTED_EDGE('',*,*,#232,.F.);
#297=ORIENTED_EDGE('',*,*,#228,.F.);
#298=ORIENTED_EDGE('',*,*,#232,.T.);
#299=ORIENTED_EDGE('',*,*,#206,.F.);
#300=ORIENTED_EDGE('',*,*,#233,.F.);
#301=ORIENTED_EDGE('',*,*,#229,.F.);
#302=ORIENTED_EDGE('',*,*,#233,.T.);
#303=ORIENTED_EDGE('',*,*,#205,.F.);
#304=ORIENTED_EDGE('',*,*,#234,.F.);
#305=ORIENTED_EDGE('',*,*,#230,.F.);
#306=ORIENTED_EDGE('',*,*,#234,.T.);
#307=ORIENTED_EDGE('',*,*,#204,.F.);
#308=ORIENTED_EDGE('',*,*,#231,.F.);
#309=ORIENTED_EDGE('',*,*,#235,.T.);
#310=ORIENTED_EDGE('',*,*,#236,.T.);
#311=ORIENTED_EDGE('',*,*,#237,.T.);
#312=ORIENTED_EDGE('',*,*,#238,.T.);
#313=ORIENTED_EDGE('',*,*,#239,.F.);
#314=ORIENTED_EDGE('',*,*,#240,.T.);
#315=ORIENTED_EDGE('',*,*,#219,.F.);
#316=ORIENTED_EDGE('',*,*,#241,.T.);
#317=ORIENTED_EDGE('',*,*,#236,.F.);
#318=ORIENTED_EDGE('',*,*,#242,.F.);
#319=ORIENTED_EDGE('',*,*,#243,.F.);
#320=ORIENTED_EDGE('',*,*,#242,.T.);
#321=ORIENTED_EDGE('',*,*,#235,.F.);
#322=ORIENTED_EDGE('',*,*,#244,.F.);
#323=ORIENTED_EDGE('',*,*,#222,.F.);
#324=ORIENTED_EDGE('',*,*,#245,.F.);
#325=ORIENTED_EDGE('',*,*,#246,.F.);
#326=ORIENTED_EDGE('',*,*,#245,.T.);
#327=ORIENTED_EDGE('',*,*,#221,.F.);
#328=ORIENTED_EDGE('',*,*,#247,.F.);
#329=ORIENTED_EDGE('',*,*,#248,.F.);
#330=ORIENTED_EDGE('',*,*,#247,.T.);
#331=ORIENTED_EDGE('',*,*,#220,.F.);
#332=ORIENTED_EDGE('',*,*,#240,.F.);
#333=ORIENTED_EDGE('',*,*,#248,.T.);
#334=ORIENTED_EDGE('',*,*,#239,.T.);
#335=ORIENTED_EDGE('',*,*,#243,.T.);
#336=ORIENTED_EDGE('',*,*,#246,.T.);
#337=ORIENTED_EDGE('',*,*,#249,.F.);
#338=ORIENTED_EDGE('',*,*,#250,.T.);
#339=ORIENTED_EDGE('',*,*,#224,.F.);
#340=ORIENTED_EDGE('',*,*,#251,.F.);
#341=ORIENTED_EDGE('',*,*,#252,.F.);
#342=ORIENTED_EDGE('',*,*,#251,.T.);
#343=ORIENTED_EDGE('',*,*,#223,.F.);
#344=ORIENTED_EDGE('',*,*,#244,.T.);
#345=ORIENTED_EDGE('',*,*,#238,.F.);
#346=ORIENTED_EDGE('',*,*,#253,.F.);
#347=ORIENTED_EDGE('',*,*,#254,.F.);
#348=ORIENTED_EDGE('',*,*,#253,.T.);
#349=ORIENTED_EDGE('',*,*,#237,.F.);
#350=ORIENTED_EDGE('',*,*,#241,.F.);
#351=ORIENTED_EDGE('',*,*,#218,.F.);
#352=ORIENTED_EDGE('',*,*,#210,.T.);
#353=ORIENTED_EDGE('',*,*,#217,.F.);
#354=ORIENTED_EDGE('',*,*,#212,.F.);
#355=ORIENTED_EDGE('',*,*,#226,.F.);
#356=ORIENTED_EDGE('',*,*,#255,.F.);
#357=ORIENTED_EDGE('',*,*,#256,.F.);
#358=ORIENTED_EDGE('',*,*,#255,.T.);
#359=ORIENTED_EDGE('',*,*,#225,.F.);
#360=ORIENTED_EDGE('',*,*,#250,.F.);
#361=ORIENTED_EDGE('',*,*,#256,.T.);
#362=ORIENTED_EDGE('',*,*,#249,.T.);
#363=ORIENTED_EDGE('',*,*,#252,.T.);
#364=ORIENTED_EDGE('',*,*,#254,.T.);
#365=PLANE('',#421);
#366=PLANE('',#422);
#367=PLANE('',#423);
#368=PLANE('',#424);
#369=PLANE('',#425);
#370=PLANE('',#426);
#371=PLANE('',#427);
#372=PLANE('',#428);
#373=PLANE('',#429);
#374=PLANE('',#430);
#375=PLANE('',#431);
#376=PLANE('',#432);
#377=PLANE('',#433);
#378=PLANE('',#434);
#379=PLANE('',#435);
#380=PLANE('',#436);
#381=PLANE('',#437);
#382=PLANE('',#438);
#383=PLANE('',#439);
#384=PLANE('',#440);
#385=PLANE('',#441);
#386=ADVANCED_FACE('',(#16),#365,.T.);
#387=ADVANCED_FACE('',(#17),#366,.T.);
#388=ADVANCED_FACE('',(#18),#367,.T.);
#389=ADVANCED_FACE('',(#19),#368,.T.);
#390=ADVANCED_FACE('',(#20),#369,.T.);
#391=ADVANCED_FACE('',(#21,#15),#370,.F.);
#392=ADVANCED_FACE('',(#22),#371,.T.);
#393=ADVANCED_FACE('',(#23),#372,.T.);
#394=ADVANCED_FACE('',(#24),#373,.T.);
#395=ADVANCED_FACE('',(#25),#374,.T.);
#396=ADVANCED_FACE('',(#26),#375,.T.);
#397=ADVANCED_FACE('',(#27),#376,.T.);
#398=ADVANCED_FACE('',(#28),#377,.T.);
#399=ADVANCED_FACE('',(#29),#378,.T.);
#400=ADVANCED_FACE('',(#30),#379,.T.);
#401=ADVANCED_FACE('',(#31),#380,.T.);
#402=ADVANCED_FACE('',(#32),#381,.T.);
#403=ADVANCED_FACE('',(#33),#382,.T.);
#404=ADVANCED_FACE('',(#34),#383,.T.);
#405=ADVANCED_FACE('',(#35),#384,.T.);
#406=ADVANCED_FACE('',(#36),#385,.T.);
#407=CLOSED_SHELL('',(#386,#387,#388,#389,#390,#391,#392,#393,#394,#395,
#396,#397,#398,#399,#400,#401,#402,#403,#404,#405,#406));
#408=DERIVED_UNIT_ELEMENT(#410,1.);
#409=DERIVED_UNIT_ELEMENT(#657,-3.);
#410=(
MASS_UNIT()
NAMED_UNIT(*)
SI_UNIT(.KILO.,.GRAM.)
);
#411=DERIVED_UNIT((#408,#409));
#412=MEASURE_REPRESENTATION_ITEM('density measure',
POSITIVE_RATIO_MEASURE(7850.),#411);
#413=PROPERTY_DEFINITION_REPRESENTATION(#418,#415);
#414=PROPERTY_DEFINITION_REPRESENTATION(#419,#416);
#415=REPRESENTATION('material name',(#417),#654);
#416=REPRESENTATION('density',(#412),#654);
#417=DESCRIPTIVE_REPRESENTATION_ITEM('\X2\94A2\X0\','\X2\94A2\X0\');
#418=PROPERTY_DEFINITION('material property','material name',#664);
#419=PROPERTY_DEFINITION('material property','density of part',#664);
#420=AXIS2_PLACEMENT_3D('',#540,#442,#443);
#421=AXIS2_PLACEMENT_3D('',#541,#444,#445);
#422=AXIS2_PLACEMENT_3D('',#550,#450,#451);
#423=AXIS2_PLACEMENT_3D('',#559,#456,#457);
#424=AXIS2_PLACEMENT_3D('',#568,#462,#463);
#425=AXIS2_PLACEMENT_3D('',#571,#466,#467);
#426=AXIS2_PLACEMENT_3D('',#573,#469,#470);
#427=AXIS2_PLACEMENT_3D('',#599,#484,#485);
#428=AXIS2_PLACEMENT_3D('',#602,#488,#489);
#429=AXIS2_PLACEMENT_3D('',#604,#491,#492);
#430=AXIS2_PLACEMENT_3D('',#606,#494,#495);
#431=AXIS2_PLACEMENT_3D('',#607,#496,#497);
#432=AXIS2_PLACEMENT_3D('',#616,#502,#503);
#433=AXIS2_PLACEMENT_3D('',#623,#508,#509);
#434=AXIS2_PLACEMENT_3D('',#628,#513,#514);
#435=AXIS2_PLACEMENT_3D('',#632,#517,#518);
#436=AXIS2_PLACEMENT_3D('',#634,#520,#521);
#437=AXIS2_PLACEMENT_3D('',#635,#522,#523);
#438=AXIS2_PLACEMENT_3D('',#641,#527,#528);
#439=AXIS2_PLACEMENT_3D('',#645,#531,#532);
#440=AXIS2_PLACEMENT_3D('',#649,#535,#536);
#441=AXIS2_PLACEMENT_3D('',#651,#538,#539);
#442=DIRECTION('axis',(0.,0.,1.));
#443=DIRECTION('refdir',(1.,0.,0.));
#444=DIRECTION('center_axis',(0.,0.,-1.));
#445=DIRECTION('ref_axis',(-1.,0.,0.));
#446=DIRECTION('',(-1.,2.1334045903814E-16,-4.37893866394926E-16));
#447=DIRECTION('',(1.16573417585641E-15,1.,-3.55074832440403E-17));
#448=DIRECTION('',(1.,-2.1334045903814E-16,4.37893866394926E-16));
#449=DIRECTION('',(-1.16573417585641E-15,-1.,3.55074832440407E-17));
#450=DIRECTION('center_axis',(-1.,1.16573417585641E-15,0.));
#451=DIRECTION('ref_axis',(1.16573417585641E-15,1.,-3.55074832440417E-17));
#452=DIRECTION('',(-1.16573417585641E-15,-1.,0.));
#453=DIRECTION('',(0.,0.,-1.));
#454=DIRECTION('',(1.16573417585641E-15,1.,-3.55074832440417E-17));
#455=DIRECTION('',(0.,0.,-1.));
#456=DIRECTION('center_axis',(1.,-1.16573417585641E-15,0.));
#457=DIRECTION('ref_axis',(-1.16573417585641E-15,-1.,3.55074832440403E-17));
#458=DIRECTION('',(1.16573417585641E-15,1.,0.));
#459=DIRECTION('',(0.,0.,-1.));
#460=DIRECTION('',(-1.16573417585641E-15,-1.,3.55074832440403E-17));
#461=DIRECTION('',(0.,0.,-1.));
#462=DIRECTION('center_axis',(1.16573417585641E-15,1.,0.));
#463=DIRECTION('ref_axis',(1.,-1.16573417585641E-15,4.37893866394926E-16));
#464=DIRECTION('',(-1.,1.16573417585641E-15,0.));
#465=DIRECTION('',(1.,-1.16573417585641E-15,4.37893866394926E-16));
#466=DIRECTION('center_axis',(0.,0.,-1.));
#467=DIRECTION('ref_axis',(-1.,0.,0.));
#468=DIRECTION('',(-1.,1.16573417585641E-15,-4.37893866394925E-16));
#469=DIRECTION('center_axis',(0.,0.,1.));
#470=DIRECTION('ref_axis',(-1.,0.,0.));
#471=DIRECTION('',(-1.,0.,0.));
#472=DIRECTION('',(0.,1.,0.));
#473=DIRECTION('',(1.,-1.3470620868105E-32,-2.5498639468429E-16));
#474=DIRECTION('',(8.60552948979046E-33,1.,-1.9079807706361E-17));
#475=DIRECTION('',(1.,-4.40661874536996E-17,0.));
#476=DIRECTION('',(-8.60552948979048E-33,-1.,0.));
#477=DIRECTION('',(-1.,2.15531045417266E-15,2.5498639468429E-16));
#478=DIRECTION('',(-8.60552948979047E-33,-1.,1.9079807706361E-17));
#479=DIRECTION('',(-1.,0.,0.));
#480=DIRECTION('',(1.,-1.16573417585641E-15,0.));
#481=DIRECTION('',(1.16573417585641E-15,1.,0.));
#482=DIRECTION('',(-1.,1.16573417585641E-15,0.));
#483=DIRECTION('',(-1.16573417585641E-15,-1.,0.));
#484=DIRECTION('center_axis',(-1.16573417585641E-15,-1.,0.));
#485=DIRECTION('ref_axis',(-1.,1.16573417585641E-15,-4.37893866394926E-16));
#486=DIRECTION('',(0.,0.,-1.));
#487=DIRECTION('',(0.,0.,-1.));
#488=DIRECTION('center_axis',(1.,-1.16573417585641E-15,0.));
#489=DIRECTION('ref_axis',(-1.16573417585641E-15,-1.,3.55074832440403E-17));
#490=DIRECTION('',(0.,0.,-1.));
#491=DIRECTION('center_axis',(1.16573417585641E-15,1.,0.));
#492=DIRECTION('ref_axis',(1.,-1.16573417585641E-15,4.37893866394926E-16));
#493=DIRECTION('',(0.,0.,-1.));
#494=DIRECTION('center_axis',(-1.,1.16573417585641E-15,0.));
#495=DIRECTION('ref_axis',(1.16573417585641E-15,1.,-3.55074832440403E-17));
#496=DIRECTION('center_axis',(0.,0.,1.));
#497=DIRECTION('ref_axis',(1.,0.,0.));
#498=DIRECTION('',(-1.,4.40661874536996E-17,0.));
#499=DIRECTION('',(0.,-1.,0.));
#500=DIRECTION('',(1.,0.,0.));
#501=DIRECTION('',(-8.60552948979048E-33,-1.,0.));
#502=DIRECTION('center_axis',(-1.,8.60552948979043E-33,0.));
#503=DIRECTION('ref_axis',(-8.60552948979043E-33,-1.,1.90798077063611E-17));
#504=DIRECTION('',(8.60552948979043E-33,1.,-1.90798077063611E-17));
#505=DIRECTION('',(0.,0.,1.));
#506=DIRECTION('',(0.,0.,1.));
#507=DIRECTION('',(0.,0.,1.));
#508=DIRECTION('center_axis',(7.40147429764656E-16,1.,0.));
#509=DIRECTION('ref_axis',(-1.,7.40147429764656E-16,2.5498639468429E-16));
#510=DIRECTION('',(1.,-7.40147429764656E-16,-2.5498639468429E-16));
#511=DIRECTION('',(0.,0.,1.));
#512=DIRECTION('',(0.,0.,1.));
#513=DIRECTION('center_axis',(1.,-8.60552948979046E-33,0.));
#514=DIRECTION('ref_axis',(8.60552948979046E-33,1.,-1.9079807706361E-17));
#515=DIRECTION('',(-8.60552948979046E-33,-1.,1.90798077063611E-17));
#516=DIRECTION('',(0.,0.,1.));
#517=DIRECTION('center_axis',(-1.3470620868105E-32,-1.,0.));
#518=DIRECTION('ref_axis',(1.,-1.3470620868105E-32,-2.5498639468429E-16));
#519=DIRECTION('',(-1.,1.3470620868105E-32,2.5498639468429E-16));
#520=DIRECTION('center_axis',(-2.5498639468429E-16,-1.90798077063611E-17,
-1.));
#521=DIRECTION('ref_axis',(1.,-1.3470620868105E-32,-2.5498639468429E-16));
#522=DIRECTION('center_axis',(2.15531045417266E-15,1.,0.));
#523=DIRECTION('ref_axis',(-1.,2.15531045417266E-15,2.5498639468429E-16));
#524=DIRECTION('',(1.,-2.15531045417266E-15,-2.5498639468429E-16));
#525=DIRECTION('',(0.,0.,1.));
#526=DIRECTION('',(0.,0.,1.));
#527=DIRECTION('center_axis',(1.,-8.60552948979048E-33,0.));
#528=DIRECTION('ref_axis',(8.60552948979048E-33,1.,-1.90798077063609E-17));
#529=DIRECTION('',(8.60552948979048E-33,1.,-1.90798077063613E-17));
#530=DIRECTION('',(0.,0.,-1.));
#531=DIRECTION('center_axis',(-2.15531045417266E-15,-1.,0.));
#532=DIRECTION('ref_axis',(1.,-2.15531045417266E-15,-2.5498639468429E-16));
#533=DIRECTION('',(-1.,2.15531045417266E-15,2.5498639468429E-16));
#534=DIRECTION('',(0.,0.,1.));
#535=DIRECTION('center_axis',(-1.,8.60552948979047E-33,0.));
#536=DIRECTION('ref_axis',(-8.60552948979047E-33,-1.,1.9079807706361E-17));
#537=DIRECTION('',(8.60552948979047E-33,1.,-1.90798077063613E-17));
#538=DIRECTION('center_axis',(-2.5498639468429E-16,-1.90798077063613E-17,
-1.));
#539=DIRECTION('ref_axis',(1.,-1.3470620868105E-32,-2.5498639468429E-16));
#540=CARTESIAN_POINT('',(0.,0.,0.));
#541=CARTESIAN_POINT('Origin',(86.7013462727554,-11.6237363188514,19.56290023682));
#542=CARTESIAN_POINT('',(87.8670648248834,-12.3814533777346,19.56290023682));
#543=CARTESIAN_POINT('',(85.5356277206275,-12.3814533777346,19.56290023682));
#544=CARTESIAN_POINT('',(87.8670648248834,-12.3814533777346,19.56290023682));
#545=CARTESIAN_POINT('',(85.5356277206275,-10.8660192599682,19.56290023682));
#546=CARTESIAN_POINT('',(85.5356277206275,-12.3814533777346,19.56290023682));
#547=CARTESIAN_POINT('',(87.8670648248834,-10.8660192599682,19.56290023682));
#548=CARTESIAN_POINT('',(85.5356277206275,-10.8660192599682,19.56290023682));
#549=CARTESIAN_POINT('',(87.8670648248834,-10.8660192599682,19.56290023682));
#550=CARTESIAN_POINT('Origin',(67.437078775857,-30.2968596932807,24.5129002368201));
#551=CARTESIAN_POINT('',(67.437078775857,-25.5249300529774,24.5129002368201));
#552=CARTESIAN_POINT('',(67.437078775857,-30.2968596932807,24.5129002368201));
#553=CARTESIAN_POINT('',(67.437078775857,-24.7534078263785,24.5129002368202));
#554=CARTESIAN_POINT('',(67.437078775857,-25.5249300529774,22.7629002368201));
#555=CARTESIAN_POINT('',(67.437078775857,-25.5249300529774,24.5129002368201));
#556=CARTESIAN_POINT('',(67.437078775857,-30.2968596932807,22.7629002368201));
#557=CARTESIAN_POINT('',(67.437078775857,-25.5249300529774,22.7629002368201));
#558=CARTESIAN_POINT('',(67.437078775857,-30.2968596932807,24.5129002368201));
#559=CARTESIAN_POINT('Origin',(73.8770788406769,-25.5249300529774,24.5129002368201));
#560=CARTESIAN_POINT('',(73.8770788406769,-30.2968596932807,24.5129002368201));
#561=CARTESIAN_POINT('',(73.8770788406769,-25.5249300529774,24.5129002368201));
#562=CARTESIAN_POINT('',(73.8770788406769,-22.3674430062268,24.5129002368202));
#563=CARTESIAN_POINT('',(73.8770788406769,-30.2968596932807,22.7629002368201));
#564=CARTESIAN_POINT('',(73.8770788406769,-30.2968596932807,24.5129002368201));
#565=CARTESIAN_POINT('',(73.8770788406769,-25.5249300529774,22.7629002368201));
#566=CARTESIAN_POINT('',(73.8770788406769,-30.2968596932807,22.7629002368201));
#567=CARTESIAN_POINT('',(73.8770788406769,-25.5249300529774,24.5129002368201));
#568=CARTESIAN_POINT('Origin',(67.437078775857,-25.5249300529774,24.5129002368201));
#569=CARTESIAN_POINT('',(72.727500736781,-25.5249300529774,24.5129002368202));
#570=CARTESIAN_POINT('',(73.8770788406769,-25.5249300529774,22.7629002368201));
#571=CARTESIAN_POINT('Origin',(70.6570788082669,-27.910894873129,22.7629002368201));
#572=CARTESIAN_POINT('',(67.437078775857,-30.2968596932807,22.7629002368201));
#573=CARTESIAN_POINT('Origin',(78.0179226977051,-19.2099559594763,24.5129002368202));
#574=CARTESIAN_POINT('',(65.4207014632646,-30.2968596932807,24.5129002368202));
#575=CARTESIAN_POINT('',(90.6151439321455,-30.2968596932807,24.5129002368202));
#576=CARTESIAN_POINT('',(65.4207014632646,-10.1834941865508,24.5129002368202));
#577=CARTESIAN_POINT('',(65.4207014632646,-30.2968596932807,24.5129002368202));
#578=CARTESIAN_POINT('',(66.9207040032696,-10.1834941865508,24.5129002368202));
#579=CARTESIAN_POINT('',(66.9207040032696,-10.1834941865508,24.5129002368202));
#580=CARTESIAN_POINT('',(66.9207040032696,-8.1230522256718,24.5129002368202));
#581=CARTESIAN_POINT('',(66.9207040032696,-8.1230522256718,24.5129002368202));
#582=CARTESIAN_POINT('',(89.1151439321455,-8.1230522256718,24.5129002368202));
#583=CARTESIAN_POINT('',(65.4207014632646,-8.1230522256718,24.5129002368202));
#584=CARTESIAN_POINT('',(89.1151439321455,-28.7968571532807,24.5129002368202));
#585=CARTESIAN_POINT('',(89.1151439321455,-24.7534078263785,24.5129002368202));
#586=CARTESIAN_POINT('',(88.5547019712655,-28.7968571532807,24.5129002368202));
#587=CARTESIAN_POINT('',(88.5547019712655,-28.7968571532807,24.5129002368202));
#588=CARTESIAN_POINT('',(88.5547019712655,-30.2968596932807,24.5129002368202));
#589=CARTESIAN_POINT('',(88.5547019712655,-30.2968596932807,24.5129002368202));
#590=CARTESIAN_POINT('',(90.6151439321455,-30.2968596932807,24.5129002368202));
#591=CARTESIAN_POINT('',(85.5356277206281,-12.3814533777346,24.5129002368201));
#592=CARTESIAN_POINT('',(87.867064824884,-12.3814533777346,24.5129002368201));
#593=CARTESIAN_POINT('',(82.9424937612946,-12.3814533777346,24.5129002368202));
#594=CARTESIAN_POINT('',(87.867064824884,-10.8660192599682,24.5129002368201));
#595=CARTESIAN_POINT('',(87.867064824884,-15.0379876097222,24.5129002368202));
#596=CARTESIAN_POINT('',(85.5356277206281,-10.8660192599682,24.5129002368201));
#597=CARTESIAN_POINT('',(81.7767752091666,-10.8660192599682,24.5129002368202));
#598=CARTESIAN_POINT('',(85.5356277206281,-15.7957046686054,24.5129002368202));
#599=CARTESIAN_POINT('Origin',(87.867064824884,-12.3814533777346,24.5129002368201));
#600=CARTESIAN_POINT('',(85.5356277206281,-12.3814533777346,24.5129002368201));
#601=CARTESIAN_POINT('',(87.867064824884,-12.3814533777346,24.5129002368201));
#602=CARTESIAN_POINT('Origin',(87.867064824884,-10.8660192599682,24.5129002368201));
#603=CARTESIAN_POINT('',(87.867064824884,-10.8660192599682,24.5129002368201));
#604=CARTESIAN_POINT('Origin',(85.5356277206281,-10.8660192599682,24.5129002368201));
#605=CARTESIAN_POINT('',(85.5356277206281,-10.8660192599682,24.5129002368201));
#606=CARTESIAN_POINT('Origin',(85.5356277206281,-12.3814533777346,24.5129002368201));
#607=CARTESIAN_POINT('Origin',(78.0179226977051,-19.2099559594763,26.0129002368202));
#608=CARTESIAN_POINT('',(89.1151439321455,-8.1230522256718,26.0129002368202));
#609=CARTESIAN_POINT('',(65.4207014632646,-8.1230522256718,26.0129002368202));
#610=CARTESIAN_POINT('',(65.4207014632646,-8.1230522256718,26.0129002368202));
#611=CARTESIAN_POINT('',(65.4207014632646,-30.2968596932807,26.0129002368202));
#612=CARTESIAN_POINT('',(65.4207014632646,-30.2968596932807,26.0129002368202));
#613=CARTESIAN_POINT('',(89.1151439321455,-30.2968596932807,26.0129002368202));
#614=CARTESIAN_POINT('',(90.6151439321455,-30.2968596932807,26.0129002368202));
#615=CARTESIAN_POINT('',(89.1151439321455,-24.7534078263785,26.0129002368202));
#616=CARTESIAN_POINT('Origin',(65.4207014632646,-8.1230522256718,17.5129002368202));
#617=CARTESIAN_POINT('',(65.4207014632646,-10.1834941865508,17.9129002368202));
#618=CARTESIAN_POINT('',(65.4207014632646,-8.1230522256718,17.9129002368202));
#619=CARTESIAN_POINT('',(65.4207014632646,-8.63816271589155,17.9129002368202));
#620=CARTESIAN_POINT('',(65.4207014632646,-10.1834941865508,17.5129002368202));
#621=CARTESIAN_POINT('',(65.4207014632646,-30.2968596932807,24.5129002368202));
#622=CARTESIAN_POINT('',(65.4207014632646,-8.1230522256718,17.5129002368202));
#623=CARTESIAN_POINT('Origin',(66.9207040032696,-8.1230522256718,17.5129002368202));
#624=CARTESIAN_POINT('',(66.9207040032696,-8.1230522256718,17.9129002368202));
#625=CARTESIAN_POINT('',(66.5457033682684,-8.1230522256718,17.9129002368202));
#626=CARTESIAN_POINT('',(89.1151439321455,-8.12305222567182,17.5129002368202));
#627=CARTESIAN_POINT('',(66.9207040032696,-8.1230522256718,17.5129002368202));
#628=CARTESIAN_POINT('Origin',(66.9207040032696,-10.1834941865508,17.5129002368202));
#629=CARTESIAN_POINT('',(66.9207040032696,-10.1834941865508,17.9129002368202));
#630=CARTESIAN_POINT('',(66.9207040032696,-9.66838369633104,17.9129002368202));
#631=CARTESIAN_POINT('',(66.9207040032696,-10.1834941865508,17.5129002368202));
#632=CARTESIAN_POINT('Origin',(65.4207014632646,-10.1834941865508,17.5129002368202));
#633=CARTESIAN_POINT('',(65.7957020982659,-10.1834941865508,17.9129002368202));
#634=CARTESIAN_POINT('Origin',(66.1707027332671,-9.15327320611129,17.9129002368202));
#635=CARTESIAN_POINT('Origin',(90.6151439321455,-28.7968571532807,17.5129002368202));
#636=CARTESIAN_POINT('',(88.5547019712655,-28.7968571532807,17.9129002368202));
#637=CARTESIAN_POINT('',(89.1151439321455,-28.7968571532807,17.9129002368202));
#638=CARTESIAN_POINT('',(90.1000334419255,-28.7968571532807,17.9129002368202));
#639=CARTESIAN_POINT('',(88.5547019712655,-28.7968571532807,17.5129002368202));
#640=CARTESIAN_POINT('',(89.1151439321455,-28.7968571532807,17.5129002368202));
#641=CARTESIAN_POINT('Origin',(89.1151439321455,-30.2968596932807,17.5129002368202));
#642=CARTESIAN_POINT('',(89.1151439321455,-30.2968596932807,17.9129002368202));
#643=CARTESIAN_POINT('',(89.1151439321455,-29.9218590582807,17.9129002368202));
#644=CARTESIAN_POINT('',(89.1151439321455,-30.2968596932807,17.5129002368202));
#645=CARTESIAN_POINT('Origin',(88.5547019712655,-30.2968596932807,17.5129002368202));
#646=CARTESIAN_POINT('',(88.5547019712655,-30.2968596932807,17.9129002368202));
#647=CARTESIAN_POINT('',(89.0698124614855,-30.2968596932807,17.9129002368202));
#648=CARTESIAN_POINT('',(88.5547019712655,-30.2968596932807,17.5129002368202));
#649=CARTESIAN_POINT('Origin',(88.5547019712655,-28.7968571532807,17.5129002368202));
#650=CARTESIAN_POINT('',(88.5547019712655,-29.1718577882807,17.9129002368202));
#651=CARTESIAN_POINT('Origin',(89.5849229517055,-29.5468584232807,17.9129002368202));
#652=UNCERTAINTY_MEASURE_WITH_UNIT(LENGTH_MEASURE(0.01),#656,
'DISTANCE_ACCURACY_VALUE',
'Maximum model space distance between geometric entities at asserted c
onnectivities');
#653=UNCERTAINTY_MEASURE_WITH_UNIT(LENGTH_MEASURE(0.01),#656,
'DISTANCE_ACCURACY_VALUE',
'Maximum model space distance between geometric entities at asserted c
onnectivities');
#654=(
GEOMETRIC_REPRESENTATION_CONTEXT(3)
GLOBAL_UNCERTAINTY_ASSIGNED_CONTEXT((#652))
GLOBAL_UNIT_ASSIGNED_CONTEXT((#656,#658,#659))
REPRESENTATION_CONTEXT('','3D')
);
#655=(
GEOMETRIC_REPRESENTATION_CONTEXT(3)
GLOBAL_UNCERTAINTY_ASSIGNED_CONTEXT((#653))
GLOBAL_UNIT_ASSIGNED_CONTEXT((#656,#658,#659))
REPRESENTATION_CONTEXT('','3D')
);
#656=(
LENGTH_UNIT()
NAMED_UNIT(*)
SI_UNIT(.MILLI.,.METRE.)
);
#657=(
LENGTH_UNIT()
NAMED_UNIT(*)
SI_UNIT($,.METRE.)
);
#658=(
NAMED_UNIT(*)
PLANE_ANGLE_UNIT()
SI_UNIT($,.RADIAN.)
);
#659=(
NAMED_UNIT(*)
SI_UNIT($,.STERADIAN.)
SOLID_ANGLE_UNIT()
);
#660=SHAPE_DEFINITION_REPRESENTATION(#661,#662);
#661=PRODUCT_DEFINITION_SHAPE('',$,#664);
#662=SHAPE_REPRESENTATION('',(#420),#654);
#663=PRODUCT_DEFINITION_CONTEXT('part definition',#668,'design');
#664=PRODUCT_DEFINITION('\X2\57AB5E7396F64EF6\X0\','\X2\57AB5E7396F64EF6\X0\ 
v2',#665,#663);
#665=PRODUCT_DEFINITION_FORMATION('',$,#670);
#666=PRODUCT_RELATED_PRODUCT_CATEGORY('\X2\57AB5E7396F64EF6\X0\ v2',
'\X2\57AB5E7396F64EF6\X0\ v2',(#670));
#667=APPLICATION_PROTOCOL_DEFINITION('international standard',
'ap242_managed_model_based_3d_engineering',2011,#668);
#668=APPLICATION_CONTEXT('Managed model based 3d engineering');
#669=PRODUCT_CONTEXT('part definition',#668,'mechanical');
#670=PRODUCT('\X2\57AB5E7396F64EF6\X0\','\X2\57AB5E7396F64EF6\X0\ v2',$,
(#669));
#671=PRESENTATION_STYLE_ASSIGNMENT((#673));
#672=PRESENTATION_STYLE_ASSIGNMENT((#674));
#673=SURFACE_STYLE_USAGE(.BOTH.,#675);
#674=SURFACE_STYLE_USAGE(.BOTH.,#676);
#675=SURFACE_SIDE_STYLE('',(#677));
#676=SURFACE_SIDE_STYLE('',(#678));
#677=SURFACE_STYLE_FILL_AREA(#679);
#678=SURFACE_STYLE_FILL_AREA(#680);
#679=FILL_AREA_STYLE('\X2\94A2\X0\ - \X2\7F0E5149\X0\',(#681));
#680=FILL_AREA_STYLE('Opaque(160,160,160)',(#682));
#681=FILL_AREA_STYLE_COLOUR('\X2\94A2\X0\ - \X2\7F0E5149\X0\',#683);
#682=FILL_AREA_STYLE_COLOUR('Opaque(160,160,160)',#684);
#683=COLOUR_RGB('\X2\94A2\X0\ - \X2\7F0E5149\X0\',0.627450980392157,0.627450980392157,
0.627450980392157);
#684=COLOUR_RGB('Opaque(160,160,160)',0.627450980392157,0.627450980392157,
0.627450980392157);
ENDSEC;
END-ISO-10303-21;
